<svg class="home_blob" viewBox="0 0 200 200" xmlns="http://www.w3.org/2000/svg">
	<mask id="mask0" mask-type="alpha">
		<path fill="#8A3FFC" d="M54.2,-52.2C66.7,-41.6,70.9,-20.8,70.3,-0.6C69.6,19.5,64.1,39.1,51.6,54C39.1,69,19.5,79.3,0.3,79C-19,78.7,-37.9,67.8,-52.7,52.8C-67.5,37.9,-78,19,-77.2,0.8C-76.4,-17.3,-64.1,-34.5,-49.3,-45.1C-34.5,-55.6,-17.3,-59.3,1.8,-61.1C20.8,-62.9,41.6,-62.7,54.2,-52.2Z" transform="translate(100 100)" />
	</mask>

	<g mask="url(#mask0">
		<path fill="#8A3FFC" d="M54.2,-52.2C66.7,-41.6,70.9,-20.8,70.3,-0.6C69.6,19.5,64.1,39.1,51.6,54C39.1,69,19.5,79.3,0.3,79C-19,78.7,-37.9,67.8,-52.7,52.8C-67.5,37.9,-78,19,-77.2,0.8C-76.4,-17.3,-64.1,-34.5,-49.3,-45.1C-34.5,-55.6,-17.3,-59.3,1.8,-61.1C20.8,-62.9,41.6,-62.7,54.2,-52.2Z" transform="translate(100 100)" />
		<image xlink:href=""/>
	</g>
</svg>