<svg class="home_blob" viewBox="0 0 200 200" xmlns="http://www.w3.org/2000/svg">
	<mask id="mask0" mask-type="alpha">
	<path fill="#FF0066" d="M60.3,-56.3C75.2,-45.4,82.3,-22.7,81,-1.3C79.7,20.1,69.9,40.2,55.1,56.7C40.2,73.3,20.1,86.4,-0.2,86.6C-20.5,86.8,-41,74.2,-56.6,57.6C-72.3,41,-83.1,20.5,-82.4,0.7C-81.7,-19.1,-69.5,-38.2,-53.9,-49.1C-38.2,-60,-19.1,-62.7,1.8,-64.5C22.7,-66.3,45.4,-67.2,60.3,-56.3Z" transform="translate(100 100)" />
	</mask>

	<g mask="url(#mask0">
	<path fill="#FF0066" d="M60.3,-56.3C75.2,-45.4,82.3,-22.7,81,-1.3C79.7,20.1,69.9,40.2,55.1,56.7C40.2,73.3,20.1,86.4,-0.2,86.6C-20.5,86.8,-41,74.2,-56.6,57.6C-72.3,41,-83.1,20.5,-82.4,0.7C-81.7,-19.1,-69.5,-38.2,-53.9,-49.1C-38.2,-60,-19.1,-62.7,1.8,-64.5C22.7,-66.3,45.4,-67.2,60.3,-56.3Z" transform="translate(100 100)" />
		<image xlink:href=""/>
	</g>
</svg>
